<?xml version="1.0" standalone="no"?>
<!DOCTYPE svg PUBLIC "-//W3C//DTD SVG 20010904//EN"
 "http://www.w3.org/TR/2001/REC-SVG-20010904/DTD/svg10.dtd">
<svg version="1.0" xmlns="http://www.w3.org/2000/svg"
 width="512.000000pt" height="512.000000pt" viewBox="0 0 512.000000 512.000000"
 preserveAspectRatio="xMidYMid meet">
<metadata>
Created by potrace 1.11, written by Peter Selinger 2001-2013
</metadata>
<g transform="translate(0.000000,512.000000) scale(0.100000,-0.100000)"
fill="#000000" stroke="none">
<path d="M2470 4624 c-195 -68 -667 -101 -1310 -90 -212 4 -403 9 -426 12
l-41 6 -6 -48 c-37 -289 -44 -912 -14 -1184 30 -266 83 -537 138 -706 l20 -61
-40 -140 c-45 -161 -95 -384 -117 -522 -24 -154 -28 -506 -10 -853 9 -169 16
-343 16 -387 l0 -81 518 0 c639 0 845 -13 1151 -69 l213 -40 72 24 c138 46
324 69 705 86 241 11 935 6 1032 -7 l46 -6 6 48 c37 289 44 912 14 1184 -30
266 -83 537 -138 706 l-20 61 40 140 c46 162 94 376 116 518 25 158 29 506 11
857 -9 169 -16 343 -16 387 l0 81 -517 0 c-643 0 -838 12 -1149 69 -122 23
-223 40 -225 40 -2 -1 -33 -12 -69 -25z m240 -604 c288 -36 509 -174 608 -380
22 -47 46 -110 52 -141 11 -50 10 -60 -8 -102 -26 -60 -70 -87 -137 -87 -55 0
-106 25 -125 60 -7 12 -21 49 -32 83 -22 68 -65 133 -107 164 -97 73 -220 106
-391 107 -106 1 -135 -3 -191 -22 -209 -72 -337 -252 -308 -433 22 -136 133
-277 303 -380 92 -56 110 -74 126 -130 22 -75 -40 -170 -119 -184 -50 -8 -116
19 -229 97 -159 110 -288 265 -347 419 -23 62 -29 94 -33 194 -5 144 8 209 69
335 34 70 58 101 133 175 79 79 105 98 196 143 177 86 322 108 540 82z m237
-1400 c213 -110 339 -230 422 -403 54 -112 71 -182 78 -322 16 -323 -120 -553
-412 -695 -150 -74 -245 -94 -440 -94 -187 -1 -249 12 -395 81 -185 86 -323
221 -405 398 -88 187 -86 300 5 363 63 43 163 22 206 -43 10 -15 21 -52 26
-83 35 -233 290 -421 571 -422 171 0 345 67 440 170 78 84 101 146 101 280 2
238 -97 381 -349 507 -97 49 -129 73 -151 115 -29 55 -13 129 38 174 30 28 43
32 101 33 39 1 67 -9 164 -59z"/>
</g>
</svg>
